# xmcd
#
# Track frame offsets: 
#        150
#        24865
#        65150
#        82267
#        100494
#        120656
#        136161
#        150503
#        180100
#        211662
#
# Disc length: 3090 seconds
#
# Revision: 0
# Processed by: cddbd v1.5.2PL0 Copyright (c) Steve Scherf et al.
# Submitted via: ExactAudioCopyFreeDBPlugin 1.0
#
DISCID=7a0c100a
DTITLE=Jeff Healey - Mess Of Blues
DYEAR=2008
DGENRE=Blues Rock
TTITLE0=I'm Tore Down
TTITLE1=How Blue Can You Get
TTITLE2=Sugar Sweet
TTITLE3=Jambalaya
TTITLE4=The Weight
TTITLE5=Mess O' Blues
TTITLE6=It's Only Money
TTITLE7=Like A Hurricane
TTITLE8=Sittin' On Top Of The World
TTITLE9=Shake, Rattle And Roll
EXTD=
EXTT0=
EXTT1=
EXTT2=
EXTT3=
EXTT4=
EXTT5=
EXTT6=
EXTT7=
EXTT8=
EXTT9=
PLAYORDER=
